<svg xmlns="http://www.w3.org/2000/svg" fill="none" viewBox="0 0 548 485"><path fill="#5277C3" fill-rule="evenodd" d="m176.822 247.788 122.196 211.675-56.157.527-32.623-56.87-32.857 56.566-27.902-.011-14.29-24.69 46.81-80.49-33.23-57.826 28.053-48.881Z" clip-rule="evenodd"/><path fill="#7EBAE4" fill-rule="evenodd" d="M220.928 160.597 98.709 372.26l-28.535-48.37 32.938-56.688-65.415-.172-13.941-24.17 14.236-24.72 93.112.293 33.464-57.69 56.36-.146ZM230.303 329.797l244.415.012-27.623 48.897-65.562-.182 32.56 56.737-13.962 24.159-28.527.032-46.301-80.784-66.693-.136-28.307-48.735ZM372.561 237.051 250.364 25.376l56.157-.527 32.624 56.87 32.856-56.566 27.903.011 14.29 24.69-46.81 80.49 33.23 57.826-28.053 48.881Z" clip-rule="evenodd"/><path fill="#5277C3" fill-rule="evenodd" d="m176.822 247.788 122.196 211.675-56.157.527-32.623-56.87-32.857 56.566-27.902-.011-14.29-24.69 46.81-80.49-33.23-57.826 28.053-48.881ZM318.754 154.507l-244.414-.012 27.622-48.896 65.562.181-32.558-56.737 13.96-24.158 28.528-.032 46.301 80.784 66.693.135 28.306 48.735ZM328.29 324.198l122.217-211.664 28.535 48.37-32.938 56.688 65.415.172 13.941 24.17-14.236 24.72-93.112-.293-33.464 57.69-56.358.147Z" clip-rule="evenodd"/></svg>
